# xmcd
#
# Track frame offsets:
#	150
#	14120
#	38463
#	55040
#	72511
#	88132
#	107703
#	127736
#	155134
#	177015
#	194891
#	209895
#
# Disc length: 3025 seconds
#
# Revision: 1
# Processed by: cddbd v1.5.2PL0 Copyright (c) Steve Scherf et al.
# Submitted via: EasyCDDAExtractor 5.0.6
#
DISCID=b10bcf0c
DTITLE=Caetano Veloso - Cé
DYEAR=2006
DGENRE=Brasil
TTITLE0=Deusa Urbana
TTITLE1=Homem
TTITLE2=Minhas Lágrimas
TTITLE3=Musa Híbrida
TTITLE4=Não Me Arrependo
TTITLE5=O Herói
TTITLE6=Odeio
TTITLE7=Outro
TTITLE8=Porquê?
TTITLE9=Rocks
TTITLE10=Um Sonho
TTITLE11=Waly Salomão
EXTD=
EXTT0=
EXTT1=
EXTT2=
EXTT3=
EXTT4=
EXTT5=
EXTT6=
EXTT7=
EXTT8=
EXTT9=
EXTT10=
EXTT11=
PLAYORDER=
